/* XPM */

static const char *cuttool[] =

{

/* width height ncolors chars_per_pixel */

"14 14 3 1",

/* colors */

"A c #DDDDDDDDDDDD",

"B c #111111111111",

"C c #000000000000",

/* pixels */

"AAAACAAACAAAAA",

"AAAACAAACAAAAA",

"AAAACAAACAAAAA",

"AAAACCACCAAAAA",

"AAAAACACAAAAAA",

"AAAAACCCAAAAAA",

"AAAAAACAAAAAAA",

"AAAAABCBAAAAAA",

"AAAAABABBBAAAA",

"AAABBBABAABAAA",

"AABAABABAABAAA",

"AABAABABAABAAA",

"AABAABAABBAAAA",

"AAABBAAAAAAAAA",

};

