/* XPM */

static const char *dashtool[] =

{

/* width height ncolors chars_per_pixel */

"16 13 2 1",

/* colors */

"A c #FFFFFFFFFFFF",

"B c #000000000000",

/* pixels */

"AAAAAAAAAAAAAAAA",

"AAAAAAAAAAAAAABA",

"AAAAAAAAAAAAABAA",

"AAAAAAAAAAAABAAA",

"AAAAAAAAAAAAAAAA",

"AAAAAAAAABAAAAAA",

"AAAAAAAABAAAAAAA",

"AAAAAAABAAAAAAAA",

"AAAAAAAAAAAAAAAA",

"AAAABAAAAAAAAAAA",

"AAABAAAAAAAAAAAA",

"AABAAAAAAAAAAAAA",

"AAAAAAAAAAAAAAAA",

};

