/* XPM */
static const char *ringtool[] =
{
/* width height ncolors chars_per_pixel */
"16 13 2 1",
/* colors */
"A c #FFFFFFFFFFFF",
"B c #000000000000",
/* pixels */
"AAAAABAAAAAABAAA",
"AAAABABAAAAABBAA",
"AAABABABAAAABBBA",
"AABABAAABAAABBBB",
"ABABAAABABAABBBA",
"ABAAAAABABAABBAA",
"ABAAAAABABAABAAA",
"ABAAAAABABAAAAAA",
"ABABAAABABAAAAAA",
"AABABAAABAAAAAAA",
"AAABABABAAAAAAAA",
"AAAABABAAAAAAAAA",
"AAAAABAAAAAAAAAA",
};
