/* XPM */
static const char *chaintool[] =
{
/* width height ncolors chars_per_pixel */
"16 13 2 1",
/* colors */
"A c #FFFFFFFFFFFF",
"B c #000000000000",
/* pixels */
"AAAAAAAAAAAAAAAA",
"AAAAAAAAAAAAAAAA",
"AAAAAAAAAAAAAAAA",
"AAAAAAAAAAAAAAAA",
"AAAAABAAAAAAABAA",
"AAAABABAAAAABAAA",
"AAABAAABAAABAAAA",
"AABAAAAABABAAAAA",
"ABAAAAAAABAAAAAA",
"AAAAAAAAAAAAAAAA",
"AAAAAAAAAAAAAAAA",
"AAAAAAAAAAAAAAAA",
"AAAAAAAAAAAAAAAA",
};

