/* XPM */
static const char * cw180_xpm[] = {
"30 30 3 1",
" 	g None",
".	g #FFFFFF",
"+	g #000000",
"..............................",
"..............................",
"..............................",
"...........++++++.............",
"........+++......+++..........",
".......+............+.........",
"......+..............+........",
".....+................+.......",
"....+..................+......",
"...+....................+.....",
"...+....................+.....",
"...+.................+..+....+",
"..+...................+..+..+.",
"..+....................+.+.+..",
"..+.....................+++...",
"..+......................+....",
"..............................",
"..............................",
"..............................",
".......+....+++...+++.........",
"......++...+...+.+...+........",
".......+...+...+.+...+........",
".......+....+++..+...+........",
".......+...+...+.+...+........",
".......+...+...+.+...+........",
".......+...+...+.+...+........",
".......+....+++...+++.........",
"..............................",
"..............................",
".............................."};
