/* XPM */
static const char *edittool[] =
{
"16 13 2 1",
"A c #040404040404",
"B c #F3F3F7F7F3F3",
"BBBBBBBBBBBBBBBB",
"BBBBBBBBBBBBBBBB",
"BAAABAABBAAABAAA",
"BABBBABABBABBBAB",
"BABBBABABBABBBAB",
"BABBBABABBABBBAB",
"BAABBABABBABBBAB",
"BABBBABABBABBBAB",
"BABBBABABBABBBAB",
"BABBBABABBABBBAB",
"BAAABAABBAAABBAB",
"BBBBBBBBBBBBBBBB",
"BBBBBBBBBBBBBBBB",
};
