/* XPM */
static const char *eraseIcon[] =
{
/* width height ncolors chars_per_pixel */
"16 13 2 1",
/* colors */
"A c #000000000000",
"B c #FFFFFFFFFFFF",
/* pixels */
"BBBBBBBBBBBBBBBB",
"BBBBBBBBBBBBBBBB",
"BBBBBBBBBBBBBBBB",
"BBBBBBAAAAAAAABB",
"BBBBBABBBBBBAABB",
"BBBBABBBBBBABABB",
"BBBABBBBBBABBABB",
"BBAAAAAAAABBABBB",
"BBABBBBBBABABBBB",
"BBABBBBBBAABBBBB",
"BBAAAAAAAABBBBBB",
"BBBBBBBBBBBBBBBB",
"BBBBBBBBBBBBBBBB",
};
