/* XPM */
static const char *linetool[] =
{
"16 13 3 1",
"A c #040404040404",
"B c #808083830404",
"C c #FFFFFFFFFFFF",
"CCCCCCCCCCCCCCCC",
"CCCCCCCCCCCCCCAC",
"CCCCCCCCCCCCBACC",
"CCCCCCCCCCCABCCC",
"CCCCCCCCCCBACCCC",
"CCCCCCCCBABCCCCC",
"CCCCCCCAACCCCCCC",
"CCCCCCABCCCCCCCC",
"CCCCCABCCCCCCCCC",
"CCCBACCCCCCCCCCC",
"CCAACCCCCCCCCCCC",
"CABCCCCCCCCCCCCC",
"CCCCCCCCCCCCCCCC",
};
