/* XPM */
static const char * rotatecursor_xpm[] = {
"32 32 2 1",
".	c #FFFFFF",
"+	c #000000",
"................................",
"................................",
".....+..........................",
"....++..........................",
"...+++++++......................",
"..+++++++++.....................",
".+++++++++++....................",
"..+++++++++++...................",
"...+++++++++++..................",
"....++..+++++++.................",
".....+...++++++.................",
"..........+++++.................",
"..........+++++.................",
"........+++++++++...............",
".........+++++++................",
"..........+++++.................",
"...........+++..................",
"............+...................",
"................................",
"................................",
"................................",
"................................",
"................................",
"................................",
"................................",
"................................",
"................................",
"................................",
"................................",
"................................",
"................................",
"................................"};
