/* XPM */
static const char *selecttool[] =
{
/* width height ncolors chars_per_pixel */
"14 16 2 1",
/* colors */
"A c #FFFFFFFFFFFF",
"B c #000000000000",
/* pixels */
"AAAAAAAAAAAAAA",
"AAABAAAAAAAAAA",
"AAABBAAAAAAAAA",
"AAABBBAAAAAAAA",
"AAABBBBAAAAAAA",
"AAABBBBBAAAAAA",
"AAABBBBBBAAAAA",
"AAABBBBBBBAAAA",
"AAABBBBBBBBAAA",
"AAABBBBBAAAAAA",
"AAABBABBAAAAAA",
"AAABAAABBAAAAA",
"AAAAAAABBAAAAA",
"AAAAAAAABBAAAA",
"AAAAAAAABBAAAA",
"AAAAAAAAAAAAAA",
};
