/* XPM */

static const char *symboltool[] =

{

/* width height ncolors chars_per_pixel */

"16 13 3 1",

/* colors */

"A c #FFFFFFFFFFFF",

"B c #000000000000",

"C c #000000000000",

/* pixels */

"AAAAAAAAAAAACAAA",

"AAAAACCCAAAACCAA",

"AAAACAACCAAACCBA",

"AAAACAAAAAAACCBB",

"AAAAACAAAAAACCBA",

"AAAAACCCAAAACCAA",

"AAAACAACCAAACAAA",

"AAAACAAACAAAAAAA",

"AAAACAAACAAAAAAA",

"AAAACAAACAAAAAAA",

"AAAACCACCAAAAAAA",

"AAAAACCCAAAAAAAA",

"AAAAAAAAAAAAAAAA",

};

