/* XPM */
static const char *texttool[] =
{
/* width height ncolors chars_per_pixel */
"16 13 2 1",
/* colors */
"A c #000000000000",
"B c #FFFFFFFFFFFF",
/* pixels */
"BBBBBBBBBBBBBBBB",
"BBBBBBBBBBBBBBBB",
"BBBBAAAAAAABBBBB",
"BBBBABBABBABBBBB",
"BBBBBBBABBBBBBBB",
"BBBBBBBABBBBBBBB",
"BBBBBBBABBBBBBBB",
"BBBBBBBABBBBBBBB",
"BBBBBBBABBBBBBBB",
"BBBBBBAAABBBBBBB",
"BBBBBBBBBBBBBBBB",
"BBBBBBBBBBBBBBBB",
"BBBBBBBBBBBBBBBB",
};
