/* XPM */
static const char *uptool[] =
{
/* width height ncolors chars_per_pixel */
"16 13 2 1",
/* colors */
"A c #FFFFFFFFFFFF",
"B c #000000000000",
/* pixels */
"AAAAAAAAAAAAAAAA",
"AAAAAAAAAAAAAAAA",
"AAAAAAAAAABAAAAA",
"AAAAAAAAABBBAAAA",
"AAAAAAAABBBBBAAA",
"AAAAAAABBBBBBBAA",
"AAAAAABBBBBBBBBA",
"AAAAABBBBBBBAAAA",
"AAAABBBBBAAAAAAA",
"AAABBBAAAAAAAAAA",
"AABAAAAAAAAAAAAA",
"AAAAAAAAAAAAAAAA",
"AAAAAAAAAAAAAAAA",
};
