/* XPM */
static const char *wavytool[] =
{
"16 13 3 1",
"A c #040404040404",
"B c #808083830404",
"C c #FFFFFFFFFFFF",
"CCCCCCCCCCCCCCCC",
"CCCCCCCCCCCCCCCC",
"CCCCCCCCCCCCCCCC",
"CCCCCCCCCCCCCCCC",
"CCAACCCCAACCCCAC",
"CACCACCACCACCACC",
"CACCACCACCACCACC",
"CCCCACCACCACCACC",
"CCCCCAACCCCAACCC",
"CCCCCCCCCCCCCCCC",
"CCCCCCCCCCCCCCCC",
"CCCCCCCCCCCCCCCC",
"CCCCCCCCCCCCCCCC",
};
