/* XPM */
static const char *XDC_icon[] =
{
/* width height ncolors chars_per_pixel */
"32 32 2 1",
/* colors */
"A c #000000000000",
"B c #FFFFFFFFFFFF",
/* pixels */
"BBBBBBBBBBBBBBBBBBBBBBBBBBBBBBBB",
"BBBBBBBBBBBBBBBBBBBBBBBBBBBBBBBB",
"BBBBBBBBBBBBBBBBBBBBBBBBBBBBBBBB",
"BBBBBBBBBBBBBBBBBBBBBBBBBBBBBBBB",
"BBBBBBBBBBBBBBBBBBBBBBBBBBBBBBBB",
"BBBBBBBBBBBBBBBBBBBBBBBBBBBBBBBB",
"BBBBBBBAAABBBBBBBBBBBBBBBBBBBBBB",
"BBBBBBABBBABBBBBBBBBBBBBBBABBBBB",
"BBBBBBABBBABBBBBBBBBBBBBBABABBBB",
"BBBBBBABBBABBBBBBBBBBBBBABBBABBB",
"BBBBBBBAAABBBBBBBBBBBBBABBBBBABB",
"BBBBBBBBBBBBBBBBBBBBBBABBBBBABBB",
"BBBBBBBABABBBBBBBBBBBABBBBBABBBB",
"BBBBBBBABABBBBBBBBBBABBBBBABBBBB",
"BBBBBBBABABBBBBBBBBABBBBBABBBBBB",
"BBBBBBBABABBBBBBBBABBBBBABBBBBBB",
"BBBBBBBABABBBBBBBABBBBBABBBBBBBB",
"BBBBBBBABABBBBBBAABBBBABBBBBBBBB",
"BBBBBBBABABBBBBBAAABBABBBBBBBBBB",
"BBBBBBBABABBBBBBAAAAABBBBBBBBBBB",
"BBBBBBBBABBBBBBBAAAABBBBBBBBBBBB",
"BBBBBBBABABBBBBBBBBBBBBBBBBBBBBB",
"BBBBBBABBBABBBBBBBBBBBBBBBBBBBBB",
"BBBBBABBBBBABBBBBBBBBBBBBBBBBBBB",
"BBBBABBBBBBBABBBBBBBBBBBBBBBBBBB",
"BBBABBBBBBBBBABBBBBBBBBBBBBBBBBB",
"BBABBBBBBBBBBBABBBBBBBBBBBBBBBBB",
"BBBBBBBBBBBBBBBBBBBBBBBBBBBBBBBB",
"BBBBBBBBBBBBBBBBBBBBBBBBBBBBBBBB",
"BBBBBBBBBBBBBBBBBBBBBBBBBBBBBBBB",
"BBBBBBBBBBBBBBBBBBBBBBBBBBBBBBBB",
"BBBBBBBBBBBBBBBBBBBBBBBBBBBBBBBB",
};
