/* XPM */
static const char *brackettool[] =
{
/* width height ncolors chars_per_pixel */
"16 13 2 1",
/* colors */
"A c #FFFFFFFFFFFF",
"B c #000000000000",
/* pixels */
"AAAAAAAAAAAAAAAA",
"AABBBAAABBBABAAA",
"AABAAAAAAABABBAA",
"AABAAAAAAABABBBA",
"AABAAAAAAABABBAA",
"AABAAAAAAABABAAA",
"AABAAAAAAABAAAAA",
"AABAAAAAAABAAAAA",
"AABAAAAAAABAAAAA",
"AABAAAAAAABAAAAA",
"AABAAAAAAABAAAAA",
"AABBBAAABBBAAAAA",
"AAAAAAAAAAAAAAAA",
};

