/* XPM */
static const char *cw270_xpm[] = {
/* width height num_colors chars_per_pixel */
"    30    30        2            1",
/* colors */
". c #ffffff",
"# c #000000",
/* pixels */
"..............................",
"............######............",
"..........##......##..........",
".........##........##.........",
"........##..........##........",
"........#............#........",
".......#..............#.......",
".......#..............#.......",
".......#..............#.......",
"......................#.......",
"......................#.......",
"......................#.......",
".....................#........",
"................#...##........",
"...............#...##.........",
"..............#...##..........",
".............#####............",
"..............#...............",
"...............#..............",
"................#.............",
"..............................",
"..............................",
".........##..####..##.........",
"........#..#.#..#.#..#........",
"...........#...#..#..#........",
"..........#....#..#..#........",
".........#....#...#..#........",
"........####..#....##.........",
"..............................",
".............................."
};
