/* XPM */
static const char * cw90_xpm[] = {
"30 30 3 1",
" 	g None",
".	g #FFFFFF",
"+	g #000000",
"...................+..........",
"....................+.........",
".....................+........",
".................++++++.......",
"..............+++....+........",
".............+......+.........",
"............+......+..........",
"...........+..................",
"..........+...................",
".........+....................",
".........+....................",
".........+....................",
"........+.....................",
"........+.....................",
"........+.....................",
"........+.....................",
"..............................",
"..............................",
"..............................",
"..........+++...+++...........",
".........+...+.+...+..........",
".........+...+.+...+..........",
"..........++++.+...+..........",
".............+.+...+..........",
".............+.+...+..........",
".............+.+...+..........",
"..........+++...+++...........",
"..............................",
"..............................",
".............................."};
