/* XPM */
static const char *lassotool[] =
{
/* width height ncolors chars_per_pixel */
"14 16 2 1",
/* colors */
"A c #FFFFFFFFFFFF",
"B c #000000000000",
/* pixels */
"AAAAAAAAAAAAAA",
"AAABBBBBBBBAAA",
"AABBBAAAAAABAA",
"ABABABAAAAAABA",
"ABABAABAAAAABA",
"ABABAAABAAAABA",
"ABABAAAABAAABA",
"ABABAAAAABAABA",
"ABABAAABBBBABA",
"ABABABBBAAAABA",
"ABABBABBAAAABA",
"ABABAAABBAAABA",
"AABBBBBBBABBAA",
"AAAAAAAABBAAAA",
"AAAAAAAABBAAAA",
"AAAAAAAAAAAAAA",
};
