/* XPM */

static const char *pastetool[] =

{

/* width height ncolors chars_per_pixel */

"18 16 10 1",

/* colors */

"A c #FFFFFFFFFFFF",

"B c #EEEEEEEEEEEE",

"C c #DDDDDDDDDDDD",

"D c #CCCCCCCCCCCC",

"E c #BBBBBBBBBBBB",

"F c #888888888888",

"G c #777777777777",

"H c #666666666666",

"I c #111111111111",

"J c #000000000000",

/* pixels */

"CCCCCCCCCCCCCCCCCC",

"CCCCCCJJJJCCCCCCCC",

"CCJJJJJCBJJJJJCCCC",

"CJGFGJCJJCJFGFJCCC",

"CJFFJDDDEDDJGGJCCC",

"CJGGJJJJJJJJFFJCCC",

"CJGGFGFGFGFGFGJCCC",

"CJGFHFHIIIIIIIJCCC",

"CJFGFGFIAAAAAIICCC",

"CJGGGGGIAAAAAIAICC",

"CJGGFGFIAIJIAIIIIC",

"CJGFHFHIAAAAAAAAIC",

"CJFGFGFIAIIIIIIAIC",

"CCJJJJJIAAAAAAAAIC",

"CCCCCCCIIIIIIIIIIC",

"CCCCCCCCCCCCCCCCCC",

};

