/* XPM */
static const char * skullcursor_xpm[] = {
"32 32 2 1",
"@	g #FFFFFF",
"#	g #000000",
"@@@@@@@@@@@@@@@@@@@@@@@@@@@@@@@@",
"@#####@@@@@@@@@@@@@@@@@@@@@@@@@@",
"@#@@@@@@@@@@@@@@@@@@@@@@@@@@@@@@",
"@#@@@@@@########@@@@@@@@@@@@@@@@",
"@#@@@@@#@@@@@@##@@@@@@@@@@@@@@@@",
"@#@@@@#@@@@@@#@#@@@@@@@@@@@@@@@@",
"@@@@@#@@@@@@#@@#@@@@@@@@@@@@@@@@",
"@@@@#@@@@@@#@@@#@@@@@@@@@@@@@@@@",
"@@@#@@@@@@#@@@#@@@@@@@@@@@@@@@@@",
"@@########@@@#@@@@@@@@@@@@@@@@@@",
"@@#@@@@@@#@@#@@@@@@@@@@@@@@@@@@@",
"@@#@@@@@@#@#@@@@@@@@@@@@@@@@@@@@",
"@@#@@@@@@##@@@@@@@@@@@@@@@@@@@@@",
"@@########@@@@@@@@@@@@@@@@@@@@@@",
"@@@@@@@@@@@@@@@@@@@@@@@@@@@@@@@@",
"@@@@@@@@@@@@@@@@@@@@@@@@@@@@@@@@",
"@@@@@@@@@@@@@@@@@@@@@@@@@@@@@@@@",
"@@@@@@@@@@@@@@@@@@@@@@@@@@@@@@@@",
"@@@@@@@@@@@@@@@@@@@@@@@@@@@@@@@@",
"@@@@@@@@@@@@@@@@@@@@@@@@@@@@@@@@",
"@@@@@@@@@@@@@@@@@@@@@@@@@@@@@@@@",
"@@@@@@@@@@@@@@@@@@@@@@@@@@@@@@@@",
"@@@@@@@@@@@@@@@@@@@@@@@@@@@@@@@@",
"@@@@@@@@@@@@@@@@@@@@@@@@@@@@@@@@",
"@@@@@@@@@@@@@@@@@@@@@@@@@@@@@@@@",
"@@@@@@@@@@@@@@@@@@@@@@@@@@@@@@@@",
"@@@@@@@@@@@@@@@@@@@@@@@@@@@@@@@@",
"@@@@@@@@@@@@@@@@@@@@@@@@@@@@@@@@",
"@@@@@@@@@@@@@@@@@@@@@@@@@@@@@@@@",
"@@@@@@@@@@@@@@@@@@@@@@@@@@@@@@@@",
"@@@@@@@@@@@@@@@@@@@@@@@@@@@@@@@@",
"@@@@@@@@@@@@@@@@@@@@@@@@@@@@@@@@"};
