/* XPM */
static char *up[] = {
/* width height num_colors chars_per_pixel */
"    64    24        2            1",
/* colors */
". c #000000",
"# c #ffffff",
/* pixels */
"################################################################",
"################################################################",
"################################################################",
"################################################################",
"################################################################",
"################################################################",
"################################################################",
"##################################################.........#####",
"##################################.........................#####",
"##################.........................................#####",
"#########..................................................#####",
"######################.....................................#####",
"##############################################.............#####",
"################################################################",
"################################################################",
"################################################################",
"################################################################",
"################################################################",
"################################################################",
"################################################################",
"################################################################",
"################################################################",
"################################################################",
"################################################################"
};
