/* XPM */
static char * p_orbital_xpm[] = {
"16 20 3 1",
" 	g None",
".	g #FFFFFF",
"+	g #000000",
"................",
"....+++++++.....",
"...++.....++....",
"..++.......++...",
"..+.........+...",
"..+.........+...",
"..+.........+...",
"..+.........+...",
"..+.........+...",
"..++.......++...",
"...+.......+....",
"...++.....++....",
"....++...++.....",
".....+...+......",
".....++.++......",
"......+.+.......",
"......+++.......",
".......+........",
".......+........",
"................"};
