/* XPM */
static const char * superscript_xpm[] = {
"16 13 3 1",
" 	c None",
".	c #0000FF",
"+	c #000000",
"                ",
"            ..  ",
"           .  . ",
"             .  ",
"            .   ",
"   +     + .... ",
"    +   +       ",
"     + +        ",
"      +         ",
"     + +        ",
"    +   +       ",
"   +     +      ",
"                "};
