/* XPM */
static const char *arrowtool[] =
{
/* width height ncolors chars_per_pixel */
"16 13 2 1",
/* colors */
"A c #FFFFFFFFFFFF",
"B c #000000000000",
/* pixels */
"AAAAAAAAAAAAAAAA",
"AAAAAAAAAAAABAAA",
"AAAAAAAAAAAABBAA",
"AAAAAAAAAAAABBBA",
"AAAAAAAAAAAABBAA",
"AAAAAAAABAAABAAA",
"AAAAAAAAABAAAAAA",
"AAAAAAAAAABAAAAA",
"AABBBBBBBBBBAAAA",
"AAAAAAAAAABAAAAA",
"AAAAAAAAABAAAAAA",
"AAAAAAAABAAAAAAA",
"AAAAAAAAAAAAAAAA",
};
