/* XPM */
static const char * curvearrowtool_xpm[] = {
"16 13 4 1",
" 	c None",
".	c #FFFFFF",
"+	c #000000",
"@	c #F3F7F3",
"............+...",
"............++..",
"............+++.",
"............++++",
".....++++...+++.",
"....+....+..++..",
"...+......+.+...",
"...+......+.....",
"...+......+.....",
".+.+.+....+.....",
"..+++.....+.....",
"...+......+.....",
"................"};
