/* XPM */
static const char *downtool[] =
{
/* width height ncolors chars_per_pixel */
"16 13 2 1",
/* colors */
"A c #FFFFFFFFFFFF",
"B c #000000000000",
/* pixels */
"AAAAAAAAAAAAAAAA",
"AAAAAAAAAAAAAAAA",
"AAAAAAAAAABAAAAA",
"AAAAAAAAAAABAAAA",
"AAAAAAAABAAABAAA",
"AAAAAAAAABAAABAA",
"AAAAAABAAABAAABA",
"AAAAAAABAAABAAAA",
"AAAABAAABAAAAAAA",
"AAAAABAAAAAAAAAA",
"AABAAAAAAAAAAAAA",
"AAAAAAAAAAAAAAAA",
"AAAAAAAAAAAAAAAA",
};
